<svg width="52" height="53" viewBox="0 0 52 53" fill="none" xmlns="http://www.w3.org/2000/svg">
<path fill-rule="evenodd" clip-rule="evenodd" d="M26.0238 14.041C19.4167 14.041 14.0605 19.397 14.0605 26.004C14.0605 32.6109 19.4167 37.967 26.0238 37.967C32.631 37.967 37.9871 32.6109 37.9871 26.004C37.9871 19.397 32.631 14.041 26.0238 14.041ZM12.0605 26.004C12.0605 18.2924 18.3121 12.041 26.0238 12.041C33.7355 12.041 39.9871 18.2924 39.9871 26.004C39.9871 33.7155 33.7355 39.967 26.0238 39.967C18.3121 39.967 12.0605 33.7155 12.0605 26.004Z" fill="black"/>
<path fill-rule="evenodd" clip-rule="evenodd" d="M26 0C26.5523 0 27 0.447715 27 1V8.22257C27 8.77486 26.5523 9.22257 26 9.22257C25.4477 9.22257 25 8.77486 25 8.22257V1C25 0.447715 25.4477 0 26 0Z" fill="black"/>
<path fill-rule="evenodd" clip-rule="evenodd" d="M26 42.8031C26.5523 42.8031 27 43.2508 27 43.8031V51.0256C27 51.5779 26.5523 52.0256 26 52.0256C25.4477 52.0256 25 51.5779 25 51.0256V43.8031C25 43.2508 25.4477 42.8031 26 42.8031Z" fill="black"/>
<path fill-rule="evenodd" clip-rule="evenodd" d="M42.7773 26.0151C42.7773 25.4629 43.2251 25.0151 43.7773 25.0151H51.0001C51.5524 25.0151 52.0001 25.4629 52.0001 26.0151C52.0001 26.5674 51.5524 27.0151 51.0001 27.0151H43.7773C43.2251 27.0151 42.7773 26.5674 42.7773 26.0151Z" fill="black"/>
<path fill-rule="evenodd" clip-rule="evenodd" d="M0 26.0151C0 25.4629 0.447715 25.0151 1 25.0151H8.22273C8.77502 25.0151 9.22273 25.4629 9.22273 26.0151C9.22273 26.5674 8.77502 27.0151 8.22273 27.0151H1C0.447715 27.0151 0 26.5674 0 26.0151Z" fill="black"/>
<path fill-rule="evenodd" clip-rule="evenodd" d="M7.61521 7.61895C8.00577 7.22845 8.63894 7.2285 9.02943 7.61906L14.1365 12.727C14.527 13.1175 14.527 13.7507 14.1364 14.1412C13.7459 14.5317 13.1127 14.5316 12.7222 14.1411L7.6151 9.03316C7.22461 8.64261 7.22466 8.00944 7.61521 7.61895Z" fill="black"/>
<path fill-rule="evenodd" clip-rule="evenodd" d="M37.8642 37.8866C38.2548 37.4961 38.888 37.4961 39.2785 37.8867L44.3855 42.9946C44.776 43.3851 44.776 44.0183 44.3854 44.4088C43.9949 44.7993 43.3617 44.7992 42.9712 44.4087L37.8641 39.3008C37.4736 38.9102 37.4737 38.277 37.8642 37.8866Z" fill="black"/>
<path fill-rule="evenodd" clip-rule="evenodd" d="M44.3854 7.61895C44.776 8.00944 44.776 8.64261 44.3855 9.03316L39.2785 14.1411C38.888 14.5316 38.2548 14.5317 37.8642 14.1412C37.4737 13.7507 37.4736 13.1175 37.8641 12.727L42.9712 7.61906C43.3617 7.22851 43.9949 7.22845 44.3854 7.61895Z" fill="black"/>
<path fill-rule="evenodd" clip-rule="evenodd" d="M14.1364 37.8866C14.527 38.277 14.527 38.9102 14.1365 39.3008L9.02943 44.4087C8.63894 44.7992 8.00577 44.7993 7.61521 44.4088C7.22466 44.0183 7.22461 43.3851 7.6151 42.9946L12.7222 37.8867C13.1127 37.4961 13.7459 37.4961 14.1364 37.8866Z" fill="black"/>
</svg>
