<svg width="52" height="40" viewBox="0 0 52 40" fill="none" xmlns="http://www.w3.org/2000/svg">
<path fill-rule="evenodd" clip-rule="evenodd" d="M34.3007 9.23428C31.9061 9.23428 29.764 10.314 28.3343 12.0174C27.9793 12.4404 27.3485 12.4955 26.9255 12.1404C26.5025 11.7854 26.4474 11.1546 26.8024 10.7316C28.596 8.59459 31.2906 7.23428 34.3007 7.23428C39.7058 7.23428 44.0872 11.6157 44.0872 17.0208C44.0872 18.3706 43.8131 19.6587 43.3176 20.8306C43.1025 21.3393 42.5158 21.5773 42.0071 21.3623C41.4984 21.1472 41.2604 20.5605 41.4755 20.0518C41.8688 19.1214 42.0872 18.0978 42.0872 17.0208C42.0872 12.7203 38.6012 9.23428 34.3007 9.23428Z" fill="black"/>
<path fill-rule="evenodd" clip-rule="evenodd" d="M23.6636 3.48551C24.0737 3.11554 24.706 3.14804 25.076 3.55808L27.9067 6.69544C28.2766 7.10549 28.2441 7.73782 27.8341 8.10779C27.424 8.47776 26.7917 8.44527 26.4217 8.03522L23.591 4.89786C23.2211 4.48781 23.2536 3.85548 23.6636 3.48551Z" fill="black"/>
<path fill-rule="evenodd" clip-rule="evenodd" d="M36.5732 0C37.1255 0 37.5732 0.447715 37.5732 1V4.63179C37.5732 5.18408 37.1255 5.63179 36.5732 5.63179C36.021 5.63179 35.5732 5.18408 35.5732 4.63179V1C35.5732 0.447715 36.021 0 36.5732 0Z" fill="black"/>
<path fill-rule="evenodd" clip-rule="evenodd" d="M48.0834 5.53072C48.4739 5.92124 48.4739 6.55441 48.0834 6.94493L45.0196 10.0087C44.6291 10.3992 43.9959 10.3992 43.6054 10.0087C43.2149 9.61817 43.2149 8.98501 43.6054 8.59448L46.6692 5.53072C47.0597 5.14019 47.6928 5.14019 48.0834 5.53072Z" fill="black"/>
<path fill-rule="evenodd" clip-rule="evenodd" d="M45.1587 16.2877C45.1587 15.7354 45.6064 15.2877 46.1587 15.2877H51.0001C51.5524 15.2877 52.0001 15.7354 52.0001 16.2877C52.0001 16.84 51.5524 17.2877 51.0001 17.2877H46.1587C45.6064 17.2877 45.1587 16.84 45.1587 16.2877Z" fill="black"/>
<path fill-rule="evenodd" clip-rule="evenodd" d="M12.6217 20.0274C13.9466 15.4379 18.1688 12.0766 23.1889 12.0766C28.0971 12.0766 32.2462 15.2894 33.6669 19.7234C34.1463 19.6475 34.6399 19.6054 35.1468 19.6054C40.5507 19.6054 44.9314 23.9848 44.9314 29.389C44.9314 34.7931 40.5509 39.1736 35.1468 39.1736H9.78461C4.3805 39.1736 0 34.7931 0 29.389C0 23.9849 4.3805 19.6044 9.78461 19.6044C10.7725 19.6044 11.7247 19.7539 12.6217 20.0274ZM23.1889 14.0766C18.7465 14.0766 15.0616 17.2969 14.3242 21.5318C14.2714 21.8351 14.0817 22.0973 13.8101 22.2423C13.5384 22.3874 13.2151 22.3992 12.9336 22.2743C11.9687 21.8463 10.9052 21.6044 9.78461 21.6044C5.48507 21.6044 2 25.0895 2 29.389C2 33.6886 5.48507 37.1736 9.78461 37.1736H35.1468C39.4463 37.1736 42.9314 33.6886 42.9314 29.389C42.9314 25.0896 39.4464 21.6054 35.1468 21.6054C34.4805 21.6054 33.8314 21.6987 33.1984 21.8616C32.9362 21.9291 32.6579 21.8873 32.427 21.746C32.1961 21.6046 32.0324 21.3756 31.9733 21.1114C31.0729 17.0848 27.4831 14.0766 23.1889 14.0766Z" fill="black"/>
</svg>
