<svg width="60" height="42" viewBox="0 0 60 42" fill="none" xmlns="http://www.w3.org/2000/svg">
<path fill-rule="evenodd" clip-rule="evenodd" d="M13.3575 20.8657C14.7353 15.9966 19.2017 12.424 24.516 12.424C29.709 12.424 34.0962 15.8351 35.5792 20.5356C36.1003 20.4504 36.6373 20.403 37.189 20.403C42.883 20.403 47.5 25.0195 47.499 30.712M13.3575 20.8657C12.3954 20.5661 11.3723 20.402 10.31 20.402C4.61572 20.402 0 25.0177 0 30.712C0 36.4063 4.61572 41.022 10.31 41.022H37.189C42.8832 41.022 47.4989 36.4062 47.499 30.712M24.516 14.424C19.7782 14.424 15.8485 17.8584 15.0622 22.3746C15.0094 22.6779 14.8197 22.9401 14.548 23.0851C14.2764 23.2302 13.953 23.242 13.6715 23.1171C12.6416 22.6603 11.5064 22.402 10.31 22.402C5.72029 22.402 2 26.1223 2 30.712C2 35.3017 5.72029 39.022 10.31 39.022H37.189C41.7787 39.022 45.499 35.3017 45.499 30.712C45.4999 26.1246 41.7789 22.403 37.189 22.403C36.4773 22.403 35.7843 22.5027 35.1092 22.6765C34.847 22.7439 34.5687 22.7022 34.3378 22.5608C34.1069 22.4194 33.9432 22.1905 33.8841 21.9262C32.9238 17.6322 29.0957 14.424 24.516 14.424Z" fill="black"/>
<path fill-rule="evenodd" clip-rule="evenodd" d="M25.8338 8.44165C27.2117 3.57257 31.678 0 36.9924 0C42.1854 0 46.5726 3.41105 48.0556 8.11156C48.5767 8.02643 49.1137 7.979 49.6654 7.979C55.3596 7.979 59.9754 12.5947 59.9754 18.289C59.9754 23.9833 55.3596 28.599 49.6654 28.599C49.1131 28.599 48.6654 28.1513 48.6654 27.599C48.6654 27.0467 49.1131 26.599 49.6654 26.599C54.2551 26.599 57.9754 22.8787 57.9754 18.289C57.9754 13.6993 54.2551 9.979 49.6654 9.979C48.9536 9.979 48.2607 10.0787 47.5856 10.2524C47.3234 10.3199 47.045 10.2782 46.8141 10.1368C46.5832 9.99543 46.4195 9.76646 46.3605 9.50224C45.4002 5.20821 41.572 2 36.9924 2C32.2546 2 28.3249 5.43441 27.5385 9.95054C27.4857 10.2539 27.296 10.5161 27.0244 10.6611C26.7527 10.8062 26.4294 10.818 26.1479 10.6931C25.118 10.2363 23.9827 9.978 22.7864 9.978C19.6306 9.978 16.8845 11.7363 15.4763 14.3319C15.213 14.8173 14.6059 14.9973 14.1205 14.734C13.6351 14.4706 13.455 13.8636 13.7184 13.3781C15.4623 10.1637 18.8681 7.978 22.7864 7.978C23.8487 7.978 24.8717 8.14205 25.8338 8.44165Z" fill="black"/>
</svg>
