<svg width="48" height="48" viewBox="0 0 48 48" fill="none" xmlns="http://www.w3.org/2000/svg">
<path fill-rule="evenodd" clip-rule="evenodd" d="M13.3575 8.44165C14.7353 3.57257 19.2017 0 24.516 0C29.709 0 34.0962 3.41105 35.5792 8.11156C36.1003 8.02643 36.6373 7.979 37.189 7.979C42.8831 7.979 47.499 12.5936 47.499 18.288C47.499 23.9823 42.8833 28.598 37.189 28.598H10.31C4.61571 28.598 0 23.9823 0 18.288C0 12.5937 4.61571 7.978 10.31 7.978C11.3723 7.978 12.3954 8.14205 13.3575 8.44165ZM24.516 2C19.7782 2 15.8485 5.43441 15.0622 9.95054C15.0093 10.2539 14.8197 10.5161 14.548 10.6611C14.2764 10.8062 13.953 10.818 13.6715 10.6931C12.6416 10.2363 11.5064 9.978 10.31 9.978C5.72028 9.978 2 13.6983 2 18.288C2 22.8777 5.72028 26.598 10.31 26.598H37.189C41.7787 26.598 45.499 22.8777 45.499 18.288C45.499 13.6984 41.7789 9.979 37.189 9.979C36.4773 9.979 35.7843 10.0787 35.1092 10.2524C34.847 10.3199 34.5687 10.2782 34.3378 10.1368C34.1069 9.99543 33.9432 9.76646 33.8841 9.50224C32.9238 5.20821 29.0957 2 24.516 2Z" fill="black"/>
<path fill-rule="evenodd" clip-rule="evenodd" d="M15.2939 26.6C15.8462 26.6 16.2939 27.0478 16.2939 27.6V33.043C16.2939 33.5953 15.8462 34.043 15.2939 34.043C14.7417 34.043 14.2939 33.5953 14.2939 33.043V27.6C14.2939 27.0478 14.7417 26.6 15.2939 26.6Z" fill="black"/>
<path fill-rule="evenodd" clip-rule="evenodd" d="M15.2939 36.793C15.8462 36.793 16.2939 37.2407 16.2939 37.793V41.668C16.2939 42.2203 15.8462 42.668 15.2939 42.668C14.7417 42.668 14.2939 42.2203 14.2939 41.668V37.793C14.2939 37.2407 14.7417 36.793 15.2939 36.793Z" fill="black"/>
<path fill-rule="evenodd" clip-rule="evenodd" d="M23.75 31.543C24.3023 31.543 24.75 31.9907 24.75 32.543V38.418C24.75 38.9703 24.3023 39.418 23.75 39.418C23.1977 39.418 22.75 38.9703 22.75 38.418V32.543C22.75 31.9907 23.1977 31.543 23.75 31.543Z" fill="black"/>
<path fill-rule="evenodd" clip-rule="evenodd" d="M23.75 42.043C24.3023 42.043 24.75 42.4907 24.75 43.043V46.668C24.75 47.2203 24.3023 47.668 23.75 47.668C23.1977 47.668 22.75 47.2203 22.75 46.668V43.043C22.75 42.4907 23.1977 42.043 23.75 42.043Z" fill="black"/>
<path fill-rule="evenodd" clip-rule="evenodd" d="M32.0439 38.731C32.5962 38.731 33.0439 39.1787 33.0439 39.731V44.043C33.0439 44.5953 32.5962 45.043 32.0439 45.043C31.4917 45.043 31.0439 44.5953 31.0439 44.043V39.731C31.0439 39.1787 31.4917 38.731 32.0439 38.731Z" fill="black"/>
<path fill-rule="evenodd" clip-rule="evenodd" d="M32.0439 26.6C32.5962 26.6 33.0439 27.0478 33.0439 27.6V31.293C33.0439 31.8453 32.5962 32.293 32.0439 32.293C31.4917 32.293 31.0439 31.8453 31.0439 31.293V27.6C31.0439 27.0478 31.4917 26.6 32.0439 26.6Z" fill="black"/>
</svg>
