<svg width="48" height="56" viewBox="0 0 48 56" fill="none" xmlns="http://www.w3.org/2000/svg">
<path fill-rule="evenodd" clip-rule="evenodd" d="M13.3575 8.44165C14.7353 3.57257 19.2017 0 24.516 0C29.709 0 34.0962 3.41105 35.5792 8.11156C36.1003 8.02643 36.6373 7.979 37.189 7.979C42.8831 7.979 47.499 12.5936 47.499 18.288C47.499 23.9823 42.8833 28.598 37.189 28.598H10.31C4.61572 28.598 0 23.9823 0 18.288C0 12.5937 4.61572 7.978 10.31 7.978C11.3723 7.978 12.3954 8.14205 13.3575 8.44165ZM24.516 2C19.7782 2 15.8485 5.43441 15.0622 9.95054C15.0093 10.2539 14.8197 10.5161 14.548 10.6611C14.2764 10.8062 13.953 10.818 13.6715 10.6931C12.6416 10.2363 11.5064 9.978 10.31 9.978C5.72029 9.978 2 13.6983 2 18.288C2 22.8777 5.72029 26.598 10.31 26.598H37.189C41.7787 26.598 45.499 22.8777 45.499 18.288C45.499 13.6984 41.7789 9.979 37.189 9.979C36.4773 9.979 35.7843 10.0787 35.1092 10.2524C34.847 10.3199 34.5687 10.2782 34.3378 10.1368C34.1069 9.99543 33.9432 9.76646 33.8841 9.50224C32.9238 5.20821 29.0957 2 24.516 2Z" fill="black"/>
<path fill-rule="evenodd" clip-rule="evenodd" d="M16.791 26.6C17.3433 26.6 17.791 27.0478 17.791 27.6V43.104C17.791 43.6563 17.3433 44.104 16.791 44.104C16.2387 44.104 15.791 43.6563 15.791 43.104V27.6C15.791 27.0478 16.2387 26.6 16.791 26.6Z" fill="black"/>
<path fill-rule="evenodd" clip-rule="evenodd" d="M23.749 32.104C24.3013 32.104 24.749 32.5517 24.749 33.104V54.229C24.749 54.7813 24.3013 55.229 23.749 55.229C23.1967 55.229 22.749 54.7813 22.749 54.229V33.104C22.749 32.5517 23.1967 32.104 23.749 32.104Z" fill="black"/>
<path fill-rule="evenodd" clip-rule="evenodd" d="M31.666 26.6C32.2183 26.6 32.666 27.0478 32.666 27.6V49.229C32.666 49.7813 32.2183 50.229 31.666 50.229C31.1137 50.229 30.666 49.7813 30.666 49.229V27.6C30.666 27.0478 31.1137 26.6 31.666 26.6Z" fill="black"/>
</svg>
