<svg width="48" height="50" viewBox="0 0 48 50" fill="none" xmlns="http://www.w3.org/2000/svg">
<path fill-rule="evenodd" clip-rule="evenodd" d="M13.3575 8.44165C14.7353 3.57257 19.2017 0 24.516 0C29.709 0 34.0962 3.41105 35.5792 8.11156C36.1003 8.02643 36.6373 7.979 37.189 7.979C42.8831 7.979 47.499 12.5936 47.499 18.288C47.499 23.9823 42.8833 28.598 37.189 28.598H10.31C4.61571 28.598 0 23.9823 0 18.288C0 12.5937 4.61572 7.978 10.31 7.978C11.3723 7.978 12.3954 8.14205 13.3575 8.44165ZM24.516 2C19.7782 2 15.8485 5.43441 15.0622 9.95054C15.0094 10.2539 14.8197 10.5161 14.548 10.6611C14.2764 10.8062 13.953 10.818 13.6715 10.6931C12.6416 10.2363 11.5064 9.978 10.31 9.978C5.72028 9.978 2 13.6983 2 18.288C2 22.8777 5.72028 26.598 10.31 26.598H37.189C41.7787 26.598 45.499 22.8777 45.499 18.288C45.499 13.6984 41.7789 9.979 37.189 9.979C36.4773 9.979 35.7843 10.0787 35.1092 10.2524C34.847 10.3199 34.5687 10.2782 34.3378 10.1368C34.1069 9.99543 33.9432 9.76646 33.8841 9.50224C32.9238 5.20821 29.0957 2 24.516 2Z" fill="black"/>
<path d="M19.8032 27.6L16.5112 38.64L22.0112 37.89L18.5112 48.015L30.6362 33.64L24.2612 33.015L28.0112 27.6H19.8032Z" fill="black"/>
<path fill-rule="evenodd" clip-rule="evenodd" d="M18.8449 27.3143C18.9713 26.8905 19.361 26.6 19.8032 26.6H28.0112C28.3832 26.6 28.7244 26.8065 28.8971 27.136C29.0697 27.4655 29.0451 27.8636 28.8334 28.1694L26.0519 32.1858L30.7338 32.6448C31.1035 32.6811 31.4227 32.9193 31.5626 33.2634C31.7025 33.6075 31.6402 34.0008 31.4006 34.2848L19.2756 48.6598C18.965 49.028 18.436 49.1225 18.0172 48.8845C17.5983 48.6465 17.4087 48.1436 17.5661 47.6883L20.5347 39.1006L16.6464 39.6309C16.3097 39.6768 15.9728 39.5486 15.7518 39.2906C15.5307 39.0325 15.4559 38.6799 15.5529 38.3543L18.8449 27.3143ZM20.5486 28.6L17.9127 37.4397L21.8761 36.8992C22.2204 36.8523 22.5643 36.9874 22.7846 37.256C23.0048 37.5247 23.0699 37.8884 22.9564 38.2167L21.2125 43.2615L28.6451 34.4496L24.1637 34.0103C23.8109 33.9757 23.5028 33.7569 23.3538 33.4353C23.2049 33.1136 23.2373 32.7371 23.4391 32.4457L26.1023 28.6H20.5486Z" fill="black"/>
</svg>
