<svg width="48" height="56" viewBox="0 0 48 56" fill="none" xmlns="http://www.w3.org/2000/svg">
<path fill-rule="evenodd" clip-rule="evenodd" d="M13.3575 8.44165C14.7353 3.57257 19.2017 0 24.516 0C29.709 0 34.0962 3.41105 35.5792 8.11156C36.1003 8.02643 36.6373 7.979 37.189 7.979C42.8831 7.979 47.499 12.5936 47.499 18.288C47.499 23.9823 42.8833 28.598 37.189 28.598H10.31C4.61572 28.598 0 23.9823 0 18.288C0 12.5937 4.61572 7.978 10.31 7.978C11.3723 7.978 12.3954 8.14205 13.3575 8.44165ZM24.516 2C19.7782 2 15.8485 5.43441 15.0622 9.95054C15.0093 10.2539 14.8197 10.5161 14.548 10.6611C14.2764 10.8062 13.953 10.818 13.6715 10.6931C12.6416 10.2363 11.5064 9.978 10.31 9.978C5.72029 9.978 2 13.6983 2 18.288C2 22.8777 5.72029 26.598 10.31 26.598H37.189C41.7787 26.598 45.499 22.8777 45.499 18.288C45.499 13.6984 41.7789 9.979 37.189 9.979C36.4773 9.979 35.7843 10.0787 35.1092 10.2524C34.847 10.3199 34.5687 10.2782 34.3378 10.1368C34.1069 9.99543 33.9432 9.76646 33.8841 9.50224C32.9238 5.20821 29.0957 2 24.516 2Z" fill="black"/>
<path fill-rule="evenodd" clip-rule="evenodd" d="M36.6401 41.794C36.9163 41.794 37.1401 42.0179 37.1401 42.294V55.134C37.1401 55.4102 36.9163 55.634 36.6401 55.634C36.364 55.634 36.1401 55.4102 36.1401 55.134V42.294C36.1401 42.0179 36.364 41.794 36.6401 41.794Z" fill="black"/>
<path fill-rule="evenodd" clip-rule="evenodd" d="M29.7212 48.714C29.7212 48.4378 29.945 48.214 30.2212 48.214H43.0602C43.3363 48.214 43.5602 48.4378 43.5602 48.714C43.5602 48.9901 43.3363 49.214 43.0602 49.214H30.2212C29.945 49.214 29.7212 48.9901 29.7212 48.714Z" fill="black"/>
<path fill-rule="evenodd" clip-rule="evenodd" d="M31.7475 43.8215C31.9428 43.6262 32.2593 43.6262 32.4546 43.8214L41.5336 52.8994C41.7289 53.0947 41.7289 53.4113 41.5336 53.6065C41.3384 53.8018 41.0218 53.8018 40.8265 53.6066L31.7475 44.5286C31.5523 44.3333 31.5522 44.0168 31.7475 43.8215Z" fill="black"/>
<path fill-rule="evenodd" clip-rule="evenodd" d="M41.5336 43.8215C41.7289 44.0168 41.7289 44.3333 41.5336 44.5286L32.4546 53.6066C32.2593 53.8018 31.9428 53.8018 31.7475 53.6065C31.5522 53.4113 31.5523 53.0947 31.7475 52.8994L40.8265 43.8214C41.0218 43.6262 41.3384 43.6262 41.5336 43.8215Z" fill="black"/>
<path fill-rule="evenodd" clip-rule="evenodd" d="M33.5821 43.675C33.8582 43.675 34.0821 43.8989 34.0821 44.175V45.656C34.0821 45.9322 33.8582 46.156 33.5821 46.156H32.1011C31.8249 46.156 31.6011 45.9322 31.6011 45.656C31.6011 45.3799 31.8249 45.156 32.1011 45.156H33.0821V44.175C33.0821 43.8989 33.3059 43.675 33.5821 43.675Z" fill="black"/>
<path fill-rule="evenodd" clip-rule="evenodd" d="M39.6982 43.675C39.9744 43.675 40.1982 43.8989 40.1982 44.175V45.156H41.1802C41.4564 45.156 41.6802 45.3799 41.6802 45.656C41.6802 45.9322 41.4564 46.156 41.1802 46.156H39.6982C39.4221 46.156 39.1982 45.9322 39.1982 45.656V44.175C39.1982 43.8989 39.4221 43.675 39.6982 43.675Z" fill="black"/>
<path fill-rule="evenodd" clip-rule="evenodd" d="M39.1982 51.772C39.1982 51.4959 39.4221 51.272 39.6982 51.272H41.1802C41.4564 51.272 41.6802 51.4959 41.6802 51.772C41.6802 52.0481 41.4564 52.272 41.1802 52.272H40.1982V53.253C40.1982 53.5291 39.9744 53.753 39.6982 53.753C39.4221 53.753 39.1982 53.5291 39.1982 53.253V51.772Z" fill="black"/>
<path fill-rule="evenodd" clip-rule="evenodd" d="M31.6011 51.772C31.6011 51.4959 31.8249 51.272 32.1011 51.272H33.5821C33.8582 51.272 34.0821 51.4959 34.0821 51.772C34.0821 52.0481 33.8582 52.272 33.5821 52.272H32.1011C31.8249 52.272 31.6011 52.0481 31.6011 51.772Z" fill="black"/>
<path fill-rule="evenodd" clip-rule="evenodd" d="M33.582 51.272C33.8582 51.272 34.082 51.4959 34.082 51.772V53.253C34.082 53.5291 33.8582 53.753 33.582 53.753C33.3059 53.753 33.082 53.5291 33.082 53.253V51.772C33.082 51.4959 33.3059 51.272 33.582 51.272Z" fill="black"/>
<path fill-rule="evenodd" clip-rule="evenodd" d="M35.2397 42.9885C35.435 42.7932 35.7516 42.7932 35.9468 42.9885L36.6404 43.6821L37.3349 42.9883C37.5302 42.7931 37.8468 42.7933 38.042 42.9886C38.2372 43.184 38.237 43.5006 38.0416 43.6957L36.9936 44.7427C36.7984 44.9378 36.4819 44.9378 36.2867 44.7426L35.2397 43.6956C35.0444 43.5003 35.0444 43.1837 35.2397 42.9885Z" fill="black"/>
<path fill-rule="evenodd" clip-rule="evenodd" d="M42.3671 47.3136C42.5622 47.509 42.5621 47.8255 42.3667 48.0207L41.6726 48.7142L42.3669 49.4084C42.5622 49.6037 42.5622 49.9203 42.3669 50.1155C42.1716 50.3108 41.855 50.3108 41.6598 50.1155L40.6118 49.0675C40.518 48.9737 40.4653 48.8465 40.4653 48.7139C40.4654 48.5812 40.5181 48.454 40.6119 48.3603L41.66 47.3133C41.8553 47.1181 42.1719 47.1183 42.3671 47.3136Z" fill="black"/>
<path fill-rule="evenodd" clip-rule="evenodd" d="M36.2867 52.6854C36.4819 52.4903 36.7984 52.4902 36.9936 52.6853L38.0416 53.7323C38.237 53.9274 38.2372 54.244 38.042 54.4394C37.8468 54.6347 37.5302 54.6349 37.3349 54.4397L36.6404 53.7459L35.9468 54.4396C35.7516 54.6348 35.435 54.6348 35.2397 54.4396C35.0444 54.2443 35.0444 53.9277 35.2397 53.7324L36.2867 52.6854Z" fill="black"/>
<path fill-rule="evenodd" clip-rule="evenodd" d="M30.9155 47.3134C31.1108 47.1182 31.4273 47.1182 31.6226 47.3134L32.6696 48.3604C32.8649 48.5557 32.8649 48.8723 32.6696 49.0675C32.4743 49.2628 32.1578 49.2628 31.9625 49.0675L30.9155 48.0205C30.7202 47.8253 30.7202 47.5087 30.9155 47.3134Z" fill="black"/>
<path fill-rule="evenodd" clip-rule="evenodd" d="M32.6696 48.3604C32.8649 48.5557 32.8649 48.8723 32.6696 49.0675L31.6216 50.1155C31.4264 50.3108 31.1098 50.3108 30.9145 50.1155C30.7193 49.9203 30.7193 49.6037 30.9145 49.4084L31.9625 48.3604C32.1578 48.1652 32.4744 48.1652 32.6696 48.3604Z" fill="black"/>
<path fill-rule="evenodd" clip-rule="evenodd" d="M18.0679 30.713C18.344 30.713 18.5679 30.9369 18.5679 31.213V48.64C18.5679 48.9162 18.344 49.14 18.0679 49.14C17.7917 49.14 17.5679 48.9162 17.5679 48.64V31.213C17.5679 30.9369 17.7917 30.713 18.0679 30.713Z" fill="black"/>
<path fill-rule="evenodd" clip-rule="evenodd" d="M8.854 39.927C8.854 39.6509 9.07786 39.427 9.354 39.427H26.781C27.0571 39.427 27.281 39.6509 27.281 39.927C27.281 40.2031 27.0571 40.427 26.781 40.427H9.354C9.07786 40.427 8.854 40.2031 8.854 39.927Z" fill="black"/>
<path fill-rule="evenodd" clip-rule="evenodd" d="M11.5527 33.4115C11.748 33.2162 12.0645 33.2162 12.2598 33.4115L24.5828 45.7345C24.7781 45.9297 24.7781 46.2463 24.5828 46.4416C24.3875 46.6368 24.071 46.6368 23.8757 46.4416L11.5527 34.1186C11.3574 33.9233 11.3574 33.6067 11.5527 33.4115Z" fill="black"/>
<path fill-rule="evenodd" clip-rule="evenodd" d="M24.5828 33.4115C24.7781 33.6067 24.7781 33.9233 24.5828 34.1186L12.2598 46.4416C12.0645 46.6368 11.748 46.6368 11.5527 46.4416C11.3574 46.2463 11.3574 45.9297 11.5527 45.7345L23.8757 33.4115C24.071 33.2162 24.3875 33.2162 24.5828 33.4115Z" fill="black"/>
<path fill-rule="evenodd" clip-rule="evenodd" d="M13.9172 33.265C14.1934 33.265 14.4172 33.4889 14.4172 33.765V35.776C14.4172 36.0522 14.1934 36.276 13.9172 36.276H11.9062C11.6301 36.276 11.4062 36.0522 11.4062 35.776C11.4062 35.4999 11.6301 35.276 11.9062 35.276H13.4172V33.765C13.4172 33.4889 13.6411 33.265 13.9172 33.265Z" fill="black"/>
<path fill-rule="evenodd" clip-rule="evenodd" d="M22.2188 33.265C22.4949 33.265 22.7188 33.4889 22.7188 33.765V35.276H24.2287C24.5049 35.276 24.7287 35.4999 24.7287 35.776C24.7287 36.0522 24.5049 36.276 24.2287 36.276H22.2188C21.9426 36.276 21.7188 36.0522 21.7188 35.776V33.765C21.7188 33.4889 21.9426 33.265 22.2188 33.265Z" fill="black"/>
<path fill-rule="evenodd" clip-rule="evenodd" d="M21.7188 44.078C21.7188 43.8019 21.9426 43.578 22.2188 43.578H24.2287C24.5049 43.578 24.7287 43.8019 24.7287 44.078C24.7287 44.3541 24.5049 44.578 24.2287 44.578H22.7188V46.088C22.7188 46.3641 22.4949 46.588 22.2188 46.588C21.9426 46.588 21.7188 46.3641 21.7188 46.088V44.078Z" fill="black"/>
<path fill-rule="evenodd" clip-rule="evenodd" d="M11.4062 44.078C11.4062 43.8019 11.6301 43.578 11.9062 43.578H13.9172C14.1934 43.578 14.4172 43.8019 14.4172 44.078C14.4172 44.3541 14.1934 44.578 13.9172 44.578H11.9062C11.6301 44.578 11.4062 44.3541 11.4062 44.078Z" fill="black"/>
<path fill-rule="evenodd" clip-rule="evenodd" d="M13.917 43.578C14.1931 43.578 14.417 43.8019 14.417 44.078V46.088C14.417 46.3641 14.1931 46.588 13.917 46.588C13.6408 46.588 13.417 46.3641 13.417 46.088V44.078C13.417 43.8019 13.6408 43.578 13.917 43.578Z" fill="black"/>
<path fill-rule="evenodd" clip-rule="evenodd" d="M16.2924 32.2815C16.4877 32.0862 16.8043 32.0862 16.9995 32.2815L18.0679 33.3498L19.1353 32.2816C19.3305 32.0862 19.6471 32.0861 19.8424 32.2813C20.0378 32.4765 20.0379 32.7931 19.8427 32.9884L18.4217 34.4104C18.3279 34.5043 18.2007 34.557 18.0681 34.557C17.9354 34.557 17.8082 34.5044 17.7144 34.4106L16.2924 32.9886C16.0972 32.7933 16.0972 32.4767 16.2924 32.2815Z" fill="black"/>
<path fill-rule="evenodd" clip-rule="evenodd" d="M25.7135 38.1515C25.9088 38.3467 25.9088 38.6633 25.7135 38.8586L24.6452 39.9269L25.7134 40.9943C25.9087 41.1895 25.9089 41.5061 25.7137 41.7014C25.5185 41.8968 25.2019 41.8969 25.0066 41.7017L23.5846 40.2807C23.4907 40.1869 23.438 40.0597 23.438 39.9271C23.438 39.7945 23.4906 39.6672 23.5844 39.5735L25.0064 38.1515C25.2017 37.9562 25.5183 37.9562 25.7135 38.1515Z" fill="black"/>
<path fill-rule="evenodd" clip-rule="evenodd" d="M18.0681 45.297C18.2007 45.297 18.3279 45.3497 18.4217 45.4436L19.8427 46.8656C20.0379 47.0609 20.0378 47.3775 19.8424 47.5727C19.6471 47.7679 19.3305 47.7678 19.1353 47.5724L18.0679 46.5042L16.9995 47.5726C16.8043 47.7678 16.4877 47.7678 16.2924 47.5726C16.0972 47.3773 16.0972 47.0607 16.2924 46.8654L17.7144 45.4434C17.8082 45.3497 17.9354 45.297 18.0681 45.297Z" fill="black"/>
<path fill-rule="evenodd" clip-rule="evenodd" d="M10.4223 38.1515C10.6176 37.9562 10.9342 37.9562 11.1294 38.1515L12.5514 39.5735C12.7467 39.7687 12.7467 40.0853 12.5514 40.2806C12.3562 40.4758 12.0396 40.4758 11.8443 40.2806L10.4223 38.8586C10.2271 38.6633 10.2271 38.3467 10.4223 38.1515Z" fill="black"/>
<path fill-rule="evenodd" clip-rule="evenodd" d="M12.5516 39.5736C12.7468 39.7689 12.7466 40.0855 12.5513 40.2807L11.1293 41.7017C10.934 41.8969 10.6174 41.8968 10.4222 41.7014C10.227 41.5061 10.2271 41.1895 10.4225 40.9943L11.8445 39.5733C12.0398 39.3781 12.3564 39.3782 12.5516 39.5736Z" fill="black"/>
</svg>
