<svg width="51" height="30" viewBox="0 0 51 30" fill="none" xmlns="http://www.w3.org/2000/svg">
<path fill-rule="evenodd" clip-rule="evenodd" d="M14.5488 11.677C14.5488 11.1247 14.9965 10.677 15.5488 10.677H25.2208C25.7731 10.677 26.2208 11.1247 26.2208 11.677C26.2208 12.2293 25.7731 12.677 25.2208 12.677H15.5488C14.9965 12.677 14.5488 12.2293 14.5488 11.677Z" fill="black"/>
<path fill-rule="evenodd" clip-rule="evenodd" d="M28.563 11.677C28.563 11.1247 29.0107 10.677 29.563 10.677H36.375C36.9273 10.677 37.375 11.1247 37.375 11.677C37.375 12.2293 36.9273 12.677 36.375 12.677H29.563C29.0107 12.677 28.563 12.2293 28.563 11.677Z" fill="black"/>
<path fill-rule="evenodd" clip-rule="evenodd" d="M15.4971 7.90601C15.4971 7.35372 15.9448 6.90601 16.4971 6.90601H35.4351C35.9874 6.90601 36.4351 7.35372 36.4351 7.90601C36.4351 8.45829 35.9874 8.90601 35.4351 8.90601H16.4971C15.9448 8.90601 15.4971 8.45829 15.4971 7.90601Z" fill="black"/>
<path fill-rule="evenodd" clip-rule="evenodd" d="M18.689 4.13501C18.689 3.58272 19.1367 3.13501 19.689 3.13501H32.621C33.1732 3.13501 33.621 3.58272 33.621 4.13501C33.621 4.68729 33.1732 5.13501 32.621 5.13501H19.689C19.1367 5.13501 18.689 4.68729 18.689 4.13501Z" fill="black"/>
<path fill-rule="evenodd" clip-rule="evenodd" d="M23.0688 1C23.0688 0.447715 23.5166 0 24.0688 0H28.4188C28.9711 0 29.4188 0.447715 29.4188 1C29.4188 1.55228 28.9711 2 28.4188 2H24.0688C23.5166 2 23.0688 1.55228 23.0688 1Z" fill="black"/>
<path fill-rule="evenodd" clip-rule="evenodd" d="M3.39307 15.289C3.39307 14.7367 3.84078 14.289 4.39307 14.289H19.6891C20.2414 14.289 20.6891 14.7367 20.6891 15.289C20.6891 15.8413 20.2414 16.289 19.6891 16.289H4.39307C3.84078 16.289 3.39307 15.8413 3.39307 15.289Z" fill="black"/>
<path fill-rule="evenodd" clip-rule="evenodd" d="M23.0688 15.289C23.0688 14.7367 23.5166 14.289 24.0688 14.289H46.2018C46.7541 14.289 47.2018 14.7367 47.2018 15.289C47.2018 15.8413 46.7541 16.289 46.2018 16.289H24.0688C23.5166 16.289 23.0688 15.8413 23.0688 15.289Z" fill="black"/>
<path fill-rule="evenodd" clip-rule="evenodd" d="M0 19.68C0 19.1277 0.447715 18.68 1 18.68H40.813C41.3653 18.68 41.813 19.1277 41.813 19.68C41.813 20.2323 41.3653 20.68 40.813 20.68H1C0.447715 20.68 0 20.2323 0 19.68Z" fill="black"/>
<path fill-rule="evenodd" clip-rule="evenodd" d="M43.875 20.055C43.875 19.5027 44.3227 19.055 44.875 19.055H49.875C50.4273 19.055 50.875 19.5027 50.875 20.055C50.875 20.6073 50.4273 21.055 49.875 21.055H44.875C44.3227 21.055 43.875 20.6073 43.875 20.055Z" fill="black"/>
<path fill-rule="evenodd" clip-rule="evenodd" d="M1 24.555C1 24.0027 1.44772 23.555 2 23.555H49.063C49.6153 23.555 50.063 24.0027 50.063 24.555C50.063 25.1073 49.6153 25.555 49.063 25.555H2C1.44772 25.555 1 25.1073 1 24.555Z" fill="black"/>
<path fill-rule="evenodd" clip-rule="evenodd" d="M3.875 28.9301C3.875 28.3778 4.32272 27.9301 4.875 27.9301H19.689C20.2413 27.9301 20.689 28.3778 20.689 28.9301C20.689 29.4823 20.2413 29.9301 19.689 29.9301H4.875C4.32272 29.9301 3.875 29.4823 3.875 28.9301Z" fill="black"/>
<path fill-rule="evenodd" clip-rule="evenodd" d="M23.0688 28.9301C23.0688 28.3778 23.5166 27.9301 24.0688 27.9301H45.3128C45.8651 27.9301 46.3128 28.3778 46.3128 28.9301C46.3128 29.4823 45.8651 29.9301 45.3128 29.9301H24.0688C23.5166 29.9301 23.0688 29.4823 23.0688 28.9301Z" fill="black"/>
</svg>
