<svg width="24" height="30" viewBox="0 0 24 30" fill="none" xmlns="http://www.w3.org/2000/svg">
<path d="M13.7794 13.7981C14.6394 13.7971 15.4703 13.4867 16.1204 12.9238C16.7705 12.3608 17.1965 11.5828 17.3205 10.7319H16.2836C16.2836 10.7411 16.2774 10.7492 16.2754 10.7584C16.2438 10.9039 16.1995 11.0464 16.143 11.1841C16.1231 11.2327 16.0965 11.2772 16.0735 11.3242C16.0298 11.4181 15.9803 11.5093 15.9253 11.5971C15.8926 11.6482 15.8558 11.6937 15.8195 11.7422C15.7633 11.8186 15.7029 11.8918 15.6386 11.9614C15.5957 12.0069 15.5512 12.0493 15.5052 12.0918C15.4367 12.155 15.3647 12.2144 15.2896 12.2696C15.2385 12.3069 15.1874 12.3427 15.1363 12.3764C15.0547 12.4268 14.9705 12.4725 14.8838 12.5134C14.8296 12.5399 14.7765 12.5675 14.7203 12.59C14.6211 12.6276 14.5197 12.6592 14.4167 12.6846C14.3656 12.6973 14.3176 12.7152 14.2634 12.7254C13.9431 12.7909 13.6128 12.7909 13.2924 12.7254C13.2413 12.7152 13.1902 12.6973 13.1391 12.6846C13.0361 12.6592 12.9348 12.6276 12.8356 12.59C12.7793 12.5675 12.7262 12.5389 12.672 12.5134C12.5854 12.4725 12.5011 12.4268 12.4196 12.3764C12.3685 12.3427 12.3174 12.3069 12.2663 12.2696C12.1911 12.2144 12.1191 12.155 12.0506 12.0918C12.0046 12.0493 11.9601 12.0069 11.9172 11.9614C11.8529 11.8918 11.7925 11.8186 11.7363 11.7422C11.7 11.6937 11.6632 11.6477 11.6305 11.5971C11.5755 11.5093 11.526 11.4181 11.4823 11.3242C11.4593 11.2772 11.4312 11.2327 11.4128 11.1841C11.3563 11.0464 11.312 10.9039 11.2805 10.7584C11.2805 10.7492 11.2743 10.7411 11.2723 10.7319H10.2349C10.359 11.5835 10.7854 12.3619 11.4363 12.9249C12.0871 13.488 12.9189 13.7979 13.7794 13.7981V13.7981Z" fill="black"/>
<path d="M3.09869 9.70978C3.09869 9.70058 3.10482 9.6924 3.10686 9.6832C3.13843 9.5377 3.18272 9.39525 3.23922 9.2575C3.25916 9.20895 3.28573 9.16449 3.30873 9.11748C3.35255 9.02359 3.40204 8.93246 3.45693 8.84458C3.48963 8.79348 3.52643 8.74799 3.56271 8.69996C3.61878 8.62332 3.67918 8.54995 3.74362 8.48021C3.78655 8.43473 3.83101 8.39231 3.877 8.34989C3.9455 8.28662 4.0175 8.22725 4.09266 8.17205C4.14377 8.13474 4.19487 8.09897 4.24598 8.06524C4.32749 8.01489 4.41178 7.96917 4.49843 7.92828C4.5526 7.90171 4.60575 7.87411 4.66197 7.85163C4.76215 7.81389 4.86455 7.78231 4.96859 7.75708C5.01969 7.7438 5.06773 7.72642 5.11935 7.7162C5.4397 7.65079 5.76997 7.65079 6.09033 7.7162C6.14143 7.72642 6.19254 7.7438 6.24364 7.75708C6.34682 7.78241 6.44836 7.81399 6.54771 7.85163C6.60392 7.87411 6.65707 7.90273 6.71124 7.92828C6.7979 7.96917 6.88218 8.01489 6.9637 8.06524C7.0148 8.09897 7.06591 8.13474 7.11701 8.17205C7.19217 8.22725 7.26417 8.28662 7.33267 8.34989C7.37866 8.39231 7.42312 8.43473 7.46605 8.48021C7.5305 8.54995 7.5909 8.62332 7.64696 8.69996C7.68324 8.74799 7.72004 8.79399 7.75275 8.84458C7.80763 8.93246 7.85713 9.02359 7.90095 9.11748C7.92395 9.16449 7.95205 9.20895 7.97045 9.2575C8.02696 9.39525 8.07125 9.5377 8.10281 9.6832C8.10281 9.6924 8.10894 9.70058 8.11099 9.70978H9.1392C9.13358 9.67094 9.12847 9.6321 9.12132 9.59377C9.11263 9.54522 9.10445 9.49667 9.09372 9.44863C9.07941 9.38373 9.06204 9.32036 9.04262 9.25648C9.03035 9.21151 9.0186 9.16603 9.00429 9.12208C8.98282 9.05564 8.95778 8.99125 8.93274 8.92686C8.9169 8.887 8.9031 8.84714 8.88675 8.8083C8.85506 8.73522 8.81929 8.66418 8.78454 8.59366C8.77023 8.56555 8.75797 8.53642 8.74263 8.50883C8.69017 8.41207 8.6331 8.31821 8.57144 8.22724C8.55764 8.2068 8.5418 8.18789 8.528 8.16796C8.47689 8.09795 8.42579 8.02896 8.37468 7.96355C8.34964 7.93288 8.32358 7.90426 8.29649 7.87411C8.24999 7.82301 8.204 7.76833 8.15494 7.7208C8.12376 7.68912 8.09055 7.65948 8.05835 7.62932C8.01082 7.58435 7.9633 7.53938 7.91321 7.49696C7.87795 7.46681 7.84116 7.43871 7.80436 7.41009C7.75326 7.37074 7.70215 7.3319 7.65105 7.29561C7.61221 7.26853 7.57235 7.24451 7.53249 7.21691C7.48138 7.18267 7.42568 7.14946 7.37049 7.11828C7.32926 7.09443 7.28736 7.07144 7.24477 7.04929C7.18804 7.02016 7.13081 6.99257 7.07255 6.9665C7.02911 6.94657 6.98567 6.92715 6.94172 6.90927C6.88142 6.88474 6.81958 6.86327 6.75775 6.84181C6.71329 6.82648 6.66934 6.81064 6.62385 6.79735C6.55844 6.77793 6.49201 6.76209 6.42557 6.74624C6.38162 6.73602 6.33869 6.72427 6.29423 6.71558C6.21962 6.70076 6.14092 6.69054 6.06682 6.68083C6.029 6.67572 5.9917 6.66857 5.95337 6.66499C5.83787 6.65017 5.72084 6.64352 5.60279 6.64352C5.48474 6.64352 5.36771 6.65017 5.25273 6.66141C5.2144 6.66499 5.1771 6.67214 5.13928 6.67725C5.06262 6.68696 4.98597 6.69718 4.91186 6.712C4.8674 6.72069 4.82448 6.73245 4.78053 6.74267C4.71409 6.75851 4.64766 6.77435 4.58224 6.79377C4.53676 6.80706 4.49281 6.8229 4.44835 6.83823C4.38651 6.8597 4.32468 6.88116 4.26437 6.90569C4.22042 6.92358 4.17699 6.94299 4.13355 6.96293C4.07529 6.98899 4.01805 7.01659 3.96133 7.04571C3.91874 7.06752 3.87683 7.09052 3.83561 7.11471C3.78042 7.14588 3.72676 7.1791 3.67361 7.21334C3.63375 7.23889 3.59389 7.26444 3.55505 7.29204C3.50394 7.32832 3.45284 7.36716 3.40174 7.40651C3.36494 7.43513 3.32815 7.46324 3.29288 7.49339C3.24178 7.5358 3.19527 7.58078 3.14775 7.62575C3.11555 7.6559 3.08233 7.68554 3.05116 7.71722C3.00006 7.76833 2.95611 7.81943 2.9096 7.87054C2.88354 7.90069 2.8585 7.92931 2.83141 7.95997C2.77724 8.0264 2.72665 8.09539 2.6781 8.16438C2.6643 8.18432 2.64846 8.20322 2.63466 8.22366C2.57334 8.31463 2.51627 8.40849 2.46346 8.50525C2.44813 8.53285 2.43587 8.56198 2.42156 8.59008C2.38527 8.66061 2.3495 8.73164 2.31935 8.80472C2.303 8.84356 2.2892 8.88342 2.27336 8.92328C2.24831 8.98767 2.22225 9.05206 2.20181 9.1185C2.1875 9.16245 2.17575 9.20793 2.16348 9.2529C2.1456 9.31678 2.12822 9.38015 2.11238 9.44506C2.10165 9.49309 2.09347 9.54164 2.08478 9.59019C2.07763 9.62852 2.07252 9.66736 2.06689 9.7062H3.09869V9.70978Z" fill="black"/>
<path d="M12.392 10.8643C12.4187 10.921 12.4487 10.9761 12.4819 11.0294C12.4972 11.0544 12.5126 11.0805 12.5294 11.1035C12.5725 11.1637 12.6196 11.2209 12.6705 11.2747C12.6812 11.2859 12.6904 11.2987 12.7012 11.3094C12.7643 11.3718 12.8327 11.4288 12.9056 11.4796C12.926 11.4934 12.9485 11.5051 12.9694 11.5184C13.0251 11.5535 13.083 11.5849 13.1427 11.6125C13.1703 11.6252 13.1989 11.6365 13.2275 11.6477C13.2878 11.6707 13.3494 11.6899 13.412 11.7055C13.4401 11.7121 13.4677 11.7203 13.4958 11.7254C13.6813 11.7634 13.8725 11.7634 14.058 11.7254C14.0866 11.7203 14.1137 11.7121 14.1418 11.705C14.2044 11.6898 14.2661 11.6707 14.3263 11.6477C14.3549 11.6365 14.3835 11.6252 14.4111 11.6125C14.4708 11.5849 14.5287 11.5535 14.5843 11.5184C14.6053 11.5051 14.6278 11.4934 14.6482 11.4796C14.7211 11.4288 14.7895 11.3718 14.8526 11.3094C14.8634 11.2987 14.8726 11.2859 14.8833 11.2747C14.9342 11.2209 14.9813 11.1637 15.0243 11.1035C15.0412 11.0794 15.0565 11.0524 15.0719 11.0294C15.1051 10.9764 15.1349 10.9215 15.1613 10.8648C15.1741 10.8372 15.1874 10.8096 15.1986 10.7815C15.2047 10.7657 15.2078 10.7483 15.2139 10.7304H12.3398C12.346 10.7468 12.349 10.7641 12.3557 10.7815C12.3664 10.8096 12.3797 10.8372 12.392 10.8643Z" fill="black"/>
<path d="M19.9117 0.511042C19.9117 0.375505 19.8579 0.24552 19.7621 0.149681C19.6662 0.0538418 19.5362 0 19.4007 0C19.2652 0 19.1352 0.0538418 19.0393 0.149681C18.9435 0.24552 18.8896 0.375505 18.8896 0.511042V2.05694C19.2463 2.08954 19.5933 2.19052 19.9117 2.35437V0.511042Z" fill="black"/>
<path d="M17.3567 1.02206C17.2212 1.02206 17.0912 1.07591 16.9954 1.17174C16.8995 1.26758 16.8457 1.39757 16.8457 1.53311V2.68857C17.1457 2.44128 17.4937 2.25892 17.8678 2.153V1.53311C17.8678 1.39757 17.8139 1.26758 17.7181 1.17174C17.6223 1.07591 17.4923 1.02206 17.3567 1.02206Z" fill="black"/>
<path d="M21.4448 5.11044V6.64357L23.489 5.11044H21.4448Z" fill="black"/>
<path d="M2.29816 7.02932C2.3421 6.98384 2.38759 6.93989 2.43358 6.89594C2.49082 6.84126 2.54908 6.7876 2.60938 6.73598C2.65742 6.69459 2.70648 6.65422 2.75656 6.61436C2.81891 6.5653 2.88262 6.51777 2.94769 6.47178C2.99879 6.43498 3.0499 6.3987 3.10509 6.36395C3.17204 6.32051 3.24052 6.27962 3.30951 6.23925C3.3647 6.20757 3.41938 6.17588 3.4756 6.14624C3.54765 6.10894 3.62124 6.07419 3.69534 6.04046C3.75258 6.01439 3.80931 5.98935 3.86756 5.9638C3.94473 5.93212 4.02445 5.90452 4.10367 5.87692C4.16192 5.85699 4.21916 5.83553 4.27844 5.81764C4.36276 5.79209 4.44913 5.77216 4.53396 5.75121C4.59069 5.73792 4.64639 5.72208 4.70414 5.71032C4.80124 5.69142 4.90038 5.67813 4.99952 5.66535C5.05063 5.65871 5.09662 5.64951 5.14619 5.6444C5.29593 5.62958 5.44924 5.6214 5.60255 5.6214C5.75586 5.6214 5.90918 5.62958 6.05687 5.6444C6.10797 5.64951 6.15448 5.65871 6.20354 5.66535C6.30268 5.67813 6.40182 5.69142 6.49892 5.71032C6.55667 5.72208 6.61237 5.73792 6.6691 5.75121C6.75546 5.77216 6.84183 5.79209 6.92462 5.81764C6.9839 5.83553 7.04113 5.85699 7.09939 5.87692C7.1786 5.90452 7.25833 5.93212 7.33549 5.9638C7.39375 5.98731 7.45048 6.0149 7.50772 6.04046C7.58182 6.07419 7.65541 6.10894 7.72746 6.14624C7.78368 6.17588 7.83836 6.20757 7.89355 6.23925C7.96305 6.27962 8.03153 6.32051 8.09797 6.36395C8.15163 6.3987 8.20375 6.43498 8.25537 6.47178C8.32044 6.51777 8.38415 6.5653 8.4465 6.61436C8.4976 6.65422 8.54564 6.69459 8.59368 6.73598C8.65398 6.78709 8.71224 6.84126 8.76948 6.89594C8.81547 6.93989 8.86095 6.98384 8.9049 7.02932C8.96061 7.08656 9.01376 7.14635 9.06588 7.20665C9.10728 7.25367 9.14867 7.30069 9.18802 7.35026C9.23913 7.41311 9.28665 7.47904 9.33367 7.54496C9.36995 7.59607 9.40675 7.64411 9.44048 7.69828C9.48647 7.76778 9.52889 7.83983 9.5713 7.9124C9.60094 7.96351 9.63263 8.01461 9.66073 8.06572C9.70264 8.14442 9.73943 8.22567 9.77674 8.30642C9.79974 8.35752 9.82478 8.40505 9.84624 8.45615C9.8861 8.55121 9.91983 8.64933 9.95305 8.74745C9.96634 8.78731 9.98269 8.82512 9.99547 8.8655C10.0384 9.0045 10.0752 9.14657 10.1048 9.29119C10.111 9.3193 10.1135 9.34792 10.1186 9.37603C10.1391 9.48692 10.159 9.59782 10.1697 9.71076H11.1969C11.0702 8.31353 10.4255 7.01421 9.38959 6.06804C8.35369 5.12187 7.00143 4.59726 5.59846 4.59726C4.19549 4.59726 2.84323 5.12187 1.80733 6.06804C0.771433 7.01421 0.126773 8.31353 0 9.71076H1.02719C1.03997 9.59782 1.0599 9.48692 1.0783 9.37603C1.08341 9.34792 1.08596 9.3193 1.0921 9.29119C1.12174 9.14657 1.15853 9.0045 1.20146 8.8655C1.21424 8.82512 1.23059 8.78731 1.24388 8.74745C1.27709 8.64933 1.31082 8.55121 1.35068 8.45615C1.37215 8.40505 1.39719 8.35394 1.42019 8.30642C1.45749 8.22567 1.49429 8.14442 1.53619 8.06572C1.5643 8.01461 1.59598 7.96351 1.62562 7.9124C1.66804 7.83983 1.71046 7.76778 1.75645 7.69828C1.79018 7.64717 1.82697 7.59607 1.86326 7.54496C1.91027 7.47904 1.95831 7.41311 2.00891 7.35026C2.04826 7.29915 2.08965 7.25367 2.13104 7.20665C2.1893 7.14635 2.24245 7.08656 2.29816 7.02932Z" fill="black"/>
<path d="M13.7793 14.8202C12.6486 14.8187 11.5579 14.4011 10.7153 13.6471C9.8726 12.8932 9.33683 11.8555 9.21008 10.7319H6.1377C6.26379 12.5371 7.06988 14.2274 8.39334 15.4616C9.7168 16.6959 11.4591 17.3822 13.2688 17.3822C15.0784 17.3822 16.8207 16.6959 18.1442 15.4616C19.4677 14.2274 20.2738 12.5371 20.3999 10.7319H18.3485C18.2218 11.8555 17.686 12.8932 16.8433 13.6471C16.0007 14.4011 14.91 14.8187 13.7793 14.8202V14.8202Z" fill="black"/>
<path d="M18.6343 3.06622C18.16 3.06622 17.705 3.25467 17.3696 3.59011C17.0341 3.92554 16.8457 4.38049 16.8457 4.85487V9.70977H20.423V4.85487C20.423 4.38049 20.2345 3.92554 19.8991 3.59011C19.5637 3.25467 19.1087 3.06622 18.6343 3.06622V3.06622ZM19.4009 5.62143H18.3788V4.59935H19.4009V5.62143Z" fill="black"/>
<path d="M6.89951 9.41235C6.88418 9.38731 6.86885 9.36125 6.85198 9.33825C6.80893 9.27803 6.76181 9.22083 6.71094 9.16705C6.7002 9.15581 6.691 9.14304 6.68027 9.1323C6.61709 9.06987 6.54871 9.01294 6.47586 8.96213C6.45541 8.94833 6.43293 8.93658 6.41198 8.92329C6.35642 8.88836 6.29873 8.85695 6.23924 8.82926C6.21131 8.81631 6.18269 8.80456 6.15339 8.79399C6.09345 8.7707 6.03198 8.75158 5.96941 8.73676C5.94131 8.7296 5.91422 8.72143 5.8856 8.71632C5.70015 8.6783 5.50891 8.6783 5.32346 8.71632C5.29484 8.72143 5.26775 8.7296 5.23965 8.73676C5.17714 8.75181 5.11569 8.77093 5.05567 8.79399C5.02654 8.80524 4.99792 8.81648 4.97033 8.82926C4.91062 8.85684 4.85275 8.88825 4.79708 8.92329C4.77613 8.93658 4.75365 8.94833 4.7332 8.96213C4.66035 9.01294 4.59197 9.06987 4.52879 9.1323C4.51806 9.14304 4.50886 9.15581 4.49812 9.16705C4.44725 9.22083 4.40012 9.27803 4.35708 9.33825C4.34021 9.36227 4.32488 9.38936 4.30955 9.41235C4.27635 9.46529 4.24648 9.52025 4.22012 9.57691C4.20734 9.60451 4.19405 9.6321 4.18281 9.66021C4.17668 9.67605 4.17361 9.69343 4.16748 9.71131H7.04567C7.03953 9.69496 7.03647 9.6781 7.03034 9.66021C7.01909 9.6321 7.00581 9.60451 6.99303 9.57691C6.96535 9.52015 6.93411 9.46519 6.89951 9.41235V9.41235Z" fill="black"/>
<path d="M2.85205 24.53H5.34696L6.11352 23.5079H3.55831C3.30184 23.8336 3.06596 24.175 2.85205 24.53V24.53Z" fill="black"/>
<path d="M2.85205 20.4417C3.06596 20.7967 3.30184 21.1381 3.55831 21.4638H6.11352L5.34696 20.4417H2.85205Z" fill="black"/>
<path d="M20.9336 20.4417V24.53L23.9998 22.4858L20.9336 20.4417Z" fill="black"/>
<path d="M13.268 29.6404C13.1296 29.6375 12.9981 29.5797 12.9023 29.4799C12.8065 29.38 12.7542 29.2463 12.7569 29.1079V17.3969C12.7569 17.2613 12.8108 17.1314 12.9066 17.0355C13.0025 16.9397 13.1324 16.8858 13.268 16.8858C13.4035 16.8858 13.5335 16.9397 13.6293 17.0355C13.7252 17.1314 13.779 17.2613 13.779 17.3969V29.1079C13.7818 29.2463 13.7295 29.38 13.6337 29.4799C13.5379 29.5797 13.4063 29.6375 13.268 29.6404V29.6404Z" fill="black"/>
<path d="M20.9338 22.9969H3.55841C3.42287 22.9969 3.29288 22.943 3.19704 22.8472C3.10121 22.7514 3.04736 22.6214 3.04736 22.4858C3.04736 22.3503 3.10121 22.2203 3.19704 22.1245C3.29288 22.0286 3.42287 21.9748 3.55841 21.9748H20.9338C21.0694 21.9748 21.1993 22.0286 21.2952 22.1245C21.391 22.2203 21.4449 22.3503 21.4449 22.4858C21.4449 22.6214 21.391 22.7514 21.2952 22.8472C21.1993 22.943 21.0694 22.9969 20.9338 22.9969Z" fill="black"/>
</svg>
